<svg width="54" height="55" viewBox="0 0 54 55" fill="none" xmlns="http://www.w3.org/2000/svg">
<circle cx="26.8978" cy="27.6502" r="26.74" fill="white"/>
<path d="M53.6378 27.8136C53.6378 12.9553 41.6658 0.910156 26.8978 0.910156C12.1298 0.910156 0.157837 12.9553 0.157837 27.8136C0.157837 41.2417 9.93632 52.372 22.7197 54.3902V35.5903H15.9303V27.8136H22.7197V21.8864C22.7197 15.1437 26.7119 11.4193 32.8199 11.4193C35.7454 11.4193 38.8055 11.9448 38.8055 11.9448V18.5655H35.4337C32.1119 18.5655 31.076 20.6394 31.076 22.7671V27.8136H38.4921L37.3066 35.5903H31.076V54.3902C43.8593 52.372 53.6378 41.2419 53.6378 27.8136Z" fill="#800505"/>
</svg>
