<svg width="55" height="54" viewBox="0 0 55 54" fill="none" xmlns="http://www.w3.org/2000/svg">
<circle cx="27.5952" cy="27.1387" r="26.74" fill="#800505"/>
<path d="M27.5968 10.3674C23.0421 10.3674 22.4703 10.3874 20.6815 10.4687C18.8961 10.5506 17.6773 10.8332 16.611 11.2479C15.5078 11.6763 14.5721 12.2493 13.64 13.1818C12.707 14.1141 12.1339 15.0498 11.7042 16.1525C11.2883 17.2191 11.0054 18.4384 10.9251 20.223C10.8451 22.012 10.8241 22.5839 10.8241 27.1388C10.8241 31.6936 10.8442 32.2635 10.9254 34.0523C11.0076 35.8378 11.2902 37.0566 11.7046 38.1229C12.1333 39.2261 12.7063 40.1617 13.6388 41.0939C14.5708 42.0269 15.5064 42.6013 16.6088 43.0296C17.676 43.4444 18.8949 43.7269 20.68 43.8088C22.469 43.8901 23.0402 43.9101 27.5948 43.9101C32.15 43.9101 32.7199 43.8901 34.5087 43.8088C36.2941 43.7269 37.5142 43.4444 38.5814 43.0296C39.6841 42.6013 40.6184 42.0269 41.5502 41.0939C42.4832 40.1617 43.0561 39.2261 43.4859 38.1234C43.8982 37.0566 44.1813 35.8375 44.2651 34.0527C44.3455 32.2639 44.3664 31.6936 44.3664 27.1388C44.3664 22.5839 44.3455 22.0123 44.2651 20.2233C44.1813 18.4379 43.8982 17.2193 43.4859 16.153C43.0561 15.0498 42.4832 14.1141 41.5502 13.1818C40.6174 12.249 39.6844 11.6759 38.5804 11.2481C37.5112 10.8332 36.2918 10.5504 34.5063 10.4687C32.7173 10.3874 32.1478 10.3674 27.5916 10.3674H27.5968ZM26.0922 13.3877C26.0922 13.3888 26.0932 13.3898 26.0943 13.3898C26.5404 13.3891 27.038 13.3898 27.5968 13.3898C32.0748 13.3898 32.6055 13.4059 34.3738 13.4862C36.009 13.561 36.8965 13.8342 37.4877 14.0638C38.2704 14.3677 38.8284 14.7311 39.4151 15.3183C40.0021 15.9053 40.3653 16.4643 40.6701 17.247C40.8997 17.8373 41.1732 18.7248 41.2477 20.36C41.328 22.128 41.3454 22.659 41.3454 27.1349C41.3454 31.6108 41.328 32.1419 41.2477 33.9098C41.1729 35.545 40.8997 36.4325 40.6701 37.023C40.3662 37.8057 40.0021 38.363 39.4151 38.9497C38.8281 39.5367 38.2708 39.8999 37.4877 40.204C36.8972 40.4346 36.009 40.7071 34.3738 40.7819C32.6058 40.8623 32.0748 40.8797 27.5968 40.8797C23.1185 40.8797 22.5877 40.8623 20.8199 40.7819C19.1847 40.7065 18.2972 40.4333 17.7055 40.2037C16.9229 39.8996 16.3638 39.5363 15.7768 38.9493C15.1898 38.3624 14.8265 37.8047 14.5218 37.0217C14.2922 36.4312 14.0187 35.5436 13.9442 33.9084C13.8639 32.1404 13.8478 31.6094 13.8478 27.1307C13.8478 22.6521 13.8639 22.1238 13.9442 20.3558C14.019 18.7206 14.2922 17.8331 14.5218 17.2419C14.8259 16.4592 15.1898 15.9002 15.777 15.3132C16.3639 14.7263 16.9229 14.3628 17.7056 14.0583C18.2968 13.8277 19.1847 13.5551 20.8199 13.48C22.3667 13.4101 22.9663 13.3891 26.0901 13.3856C26.0912 13.3856 26.0922 13.3865 26.0922 13.3877V13.3877ZM36.5492 16.1741C36.5492 16.1743 36.5491 16.1744 36.5489 16.1744C35.4379 16.1746 34.5367 17.0752 34.5367 18.1863C34.5367 19.2974 35.4381 20.1989 36.5492 20.1989C37.6603 20.1989 38.5618 19.2974 38.5618 18.1863C38.5618 17.0753 37.6605 16.174 36.5496 16.1738C36.5494 16.1738 36.5492 16.1739 36.5492 16.1741V16.1741ZM27.5968 18.5259C22.8405 18.5259 18.9841 22.3823 18.9841 27.1388C18.9841 31.8952 22.8405 35.7497 27.5968 35.7497C32.3532 35.7497 36.2083 31.8952 36.2083 27.1388C36.2083 22.3825 32.3529 18.5259 27.5964 18.5259H27.5968ZM27.5968 21.5483C30.6842 21.5483 33.1873 24.051 33.1873 27.1388C33.1873 30.2262 30.6842 32.7293 27.5968 32.7293C24.5092 32.7293 22.0064 30.2262 22.0064 27.1388C22.0064 24.051 24.5092 21.5483 27.5968 21.5483Z" fill="white"/>
</svg>
