<svg width="54" height="55" viewBox="0 0 54 55" fill="none" xmlns="http://www.w3.org/2000/svg">
<circle cx="26.8978" cy="27.6502" r="26.74" fill="white"/>
<path d="M13.5569 31.0356H15.7257V41.7607H17.8053V31.0356H19.9741V29.2233H13.5569V31.0356ZM24.5197 39.5325C24.1632 39.9484 22.9451 40.7803 22.9451 39.5919V32.4914H21.1031V40.2455C21.1031 42.5926 23.4501 41.9687 24.5494 40.7506V41.7607H26.3914V32.4914H24.5494V39.5325H24.5197ZM31.3826 32.4319C30.313 32.4319 29.6297 33.2341 29.6297 33.2341V29.1936H27.758V41.7607H29.6297V41.0477C29.6297 41.0477 30.2536 41.8795 31.3826 41.8795C32.363 41.8795 33.1057 41.018 33.1057 39.8296V34.6899C33.1057 33.2935 32.4521 32.4319 31.3826 32.4319ZM31.1746 39.5919C31.1746 40.2752 30.6992 40.602 30.0753 40.3347C29.9069 40.2559 29.7555 40.1449 29.6297 40.0078V34.2442C29.7485 34.1254 29.8971 34.0362 30.0159 33.9471C30.6695 33.6203 31.1746 34.1254 31.1746 34.8087V39.5919ZM38.0375 39.1166C38.0375 39.8296 37.6513 40.3049 37.2056 40.3347C36.7303 40.3644 36.2549 39.9781 36.2549 39.1166V37.3637H39.7903V34.9869C39.7994 34.625 39.7357 34.265 39.603 33.9282C39.4704 33.5913 39.2714 33.2846 39.0179 33.0261C38.5068 32.5599 37.8379 32.3051 37.1462 32.3131C36.4926 32.3131 35.8093 32.5211 35.2745 32.937C34.71 33.3826 34.3535 34.066 34.3535 34.9869V39.1463C34.3535 39.9781 34.6209 40.6317 35.0368 41.1071C35.5419 41.6419 36.2252 41.939 36.9382 41.9687C37.7998 41.9984 38.7208 41.6419 39.2556 40.8991C39.5824 40.4535 39.7903 39.8593 39.7903 39.1463V38.6709H38.0375V39.1166ZM36.2549 34.9869C36.2549 34.4819 36.552 33.8877 37.1165 33.8877C37.681 33.8877 38.0375 34.4225 38.0375 34.9869V35.9376H36.2549V34.9869Z" fill="#800505"/>
<path d="M26.8964 0.910156C23.3848 0.910351 19.9077 1.60219 16.6635 2.94619C13.4193 4.29018 10.4717 6.25999 7.98875 8.74317C5.50585 11.2263 3.53636 14.1743 2.19273 17.4186C0.849099 20.6629 0.157642 24.1401 0.157837 27.6516C0.158032 31.1632 0.849876 34.6403 2.19387 37.8845C3.53786 41.1287 5.50768 44.0763 7.99085 46.5592C10.474 49.0421 13.4219 51.0116 16.6663 52.3553C19.9106 53.6989 23.3878 54.3904 26.8993 54.3902C33.9912 54.3898 40.7925 51.5721 45.8069 46.5571C50.8214 41.5421 53.6382 34.7406 53.6378 27.6487C53.6374 20.5568 50.8198 13.7555 45.8048 8.74107C40.7898 3.72663 33.9882 0.909762 26.8964 0.910156ZM31.5904 10.9222H33.9672V18.8844C33.9672 19.3894 34.2049 19.3894 34.294 19.3894C34.6505 19.3894 35.1853 19.0032 35.4527 18.7358V10.8925H37.8294V21.4097H35.4527V20.4887C35.1259 20.7858 34.7991 21.0235 34.4723 21.2017C34.0266 21.4394 33.6107 21.5285 33.1948 21.5285C32.967 21.5394 32.7397 21.4998 32.5291 21.4125C32.3185 21.3252 32.1299 21.1923 31.9767 21.0235C31.7093 20.6967 31.5904 20.1916 31.5904 19.5677V10.9222ZM24.0145 13.6852C24.0145 12.0512 25.3515 10.7143 26.9855 10.7143C28.6195 10.7143 29.9564 12.0512 29.9564 13.6852V18.7358C29.9564 20.3699 28.6195 21.7068 26.9855 21.7068C25.3515 21.7068 24.0145 20.3699 24.0145 18.7358V13.6852ZM17.835 7.29769L19.261 12.5266L20.7168 7.29769H23.4203L20.6277 15.5569V21.4097H17.9835V15.5569L15.1314 7.29769H17.835ZM41.3054 44.5534C39.7903 46.0388 26.9558 46.0685 26.9558 46.0685C26.9558 46.0685 14.151 46.0388 12.6061 44.5534C11.0909 43.0679 11.0909 35.6702 11.0909 35.6108C11.0909 35.5811 11.0909 28.1834 12.6061 26.6683C14.1213 25.1828 26.9558 25.1531 26.9558 25.1531C26.9558 25.1531 39.7605 25.1828 41.3054 26.6683C42.8206 28.1537 42.8503 35.5514 42.8503 35.6108C42.8503 35.6108 42.8503 43.0382 41.3054 44.5534Z" fill="#800505"/>
<path d="M26.926 19.7755C27.4311 19.7755 27.6688 19.4784 27.6985 19.0031V13.3583C27.6985 12.9721 27.3123 12.6453 26.9557 12.6453C26.5992 12.6453 26.213 12.9424 26.213 13.3583V19.0031C26.213 19.4487 26.421 19.7458 26.926 19.7755Z" fill="#800505"/>
</svg>
