<svg width="55" height="21" viewBox="0 0 55 21" fill="none" xmlns="http://www.w3.org/2000/svg">
<path d="M17.6683 10.6824H15.7851V7.28803H12.3327V10.6824H10.4553V2.34764H12.3327V5.67224H15.7851V2.34764H17.6683V10.6824ZM23.4579 10.6824H21.5805V2.34764H23.4579V10.6824ZM29.2358 7.81113V10.6824H27.3585V2.34764H30.2994C32.3996 2.34764 33.4497 3.23304 33.4497 5.00383C33.4497 5.84079 33.1474 6.51888 32.543 7.03811C31.9424 7.55346 31.1383 7.81113 30.1309 7.81113H29.2358ZM29.2358 3.78908V6.38714H29.974C30.9737 6.38714 31.4735 5.94929 31.4735 5.07358C31.4735 4.21724 30.9737 3.78908 29.974 3.78908H29.2358ZM43.2904 10.6824H41.2445L40.6516 8.82827H37.6874L37.1003 10.6824H35.0661L38.1 2.34764H40.3261L43.2904 10.6824ZM40.2215 7.38684L39.3264 4.58535C39.2606 4.37611 39.2141 4.12618 39.1869 3.83557H39.1404C39.1211 4.07969 39.0726 4.32186 38.9951 4.5621L38.0884 7.38684H40.2215ZM53.66 10.6824H51.6141L51.0212 8.82827H48.057L47.4699 10.6824H45.4357L48.4697 2.34764H50.6957L53.66 10.6824ZM50.5911 7.38684L49.696 4.58535C49.6302 4.37611 49.5837 4.12618 49.5565 3.83557H49.51C49.4907 4.07969 49.4422 4.32186 49.3647 4.5621L48.458 7.38684H50.5911Z" fill="url(#paint0_linear_4327_351)"/>
<path d="M4.24402 1.22266C4.17568 1.22266 4.11003 1.22922 4.04715 1.24168C3.33811 1.38219 2.7321 2.02266 2.00928 2.02266C1.03435 2.02266 0.244019 2.81299 0.244019 3.78792V7.22266C0.244019 9.4318 2.03488 11.2227 4.24402 11.2227C6.45316 11.2227 8.24402 9.4318 8.24402 7.22266V3.78791C8.24402 2.81299 7.45369 2.02266 6.47876 2.02266C5.75594 2.02266 5.14992 1.38219 4.44089 1.24168C4.37801 1.22922 4.31236 1.22266 4.24402 1.22266ZM4.24402 2.02266C4.46602 2.02266 4.64402 2.20066 4.64402 2.42266C4.64402 2.64357 4.8231 2.82266 5.04402 2.82266H5.44402C5.66493 2.82266 5.84402 3.00174 5.84402 3.22266C5.84402 3.44357 5.66493 3.62266 5.44402 3.62266H3.04402C2.8231 3.62266 2.64402 3.44357 2.64402 3.22266C2.64402 3.00174 2.8231 2.82266 3.04402 2.82266H3.44402C3.66493 2.82266 3.84402 2.64357 3.84402 2.42266C3.84402 2.20066 4.02202 2.02266 4.24402 2.02266ZM1.04402 3.22266C1.04402 3.00174 1.2231 2.82266 1.44402 2.82266C1.66493 2.82266 1.84402 3.00174 1.84402 3.22266V3.62266C1.84402 4.06448 2.20219 4.42266 2.64402 4.42266H5.84402C6.28585 4.42266 6.64402 4.06448 6.64402 3.62266V3.22266C6.64402 3.00174 6.8231 2.82266 7.04402 2.82266C7.26493 2.82266 7.44402 3.00174 7.44402 3.22266V7.22266C7.44402 8.98997 6.01133 10.4227 4.24402 10.4227C2.47671 10.4227 1.04402 8.98997 1.04402 7.22266V3.22266ZM4.24402 5.62266C4.0231 5.62266 3.84402 5.80174 3.84402 6.02266V6.22266C3.84402 6.55403 3.57539 6.82266 3.24402 6.82266H3.04402C2.8231 6.82266 2.64402 7.00174 2.64402 7.22266C2.64402 7.44357 2.8231 7.62266 3.04402 7.62266H3.24402C3.57539 7.62266 3.84402 7.89129 3.84402 8.22266V8.42266C3.84402 8.64357 4.0231 8.82266 4.24402 8.82266C4.46493 8.82266 4.64402 8.64357 4.64402 8.42266V8.22266C4.64402 7.89129 4.91265 7.62266 5.24402 7.62266H5.44402C5.66493 7.62266 5.84402 7.44357 5.84402 7.22266C5.84402 7.00174 5.66493 6.82266 5.44402 6.82266H5.24402C4.91265 6.82266 4.64402 6.55403 4.64402 6.22266V6.02266C4.64402 5.80174 4.46493 5.62266 4.24402 5.62266Z" fill="url(#paint1_linear_4327_351)"/>
<path d="M4.19683 19.0321C3.84905 19.2125 3.41648 19.3026 2.89911 19.3026C2.22932 19.3026 1.69263 19.0912 1.28904 18.6683C0.885452 18.2453 0.683657 17.6904 0.683657 17.0034C0.683657 16.265 0.91014 15.6682 1.36311 15.2131C1.81822 14.7579 2.39248 14.5304 3.08588 14.5304C3.5324 14.5304 3.90272 14.5937 4.19683 14.7204V15.4803C3.88555 15.2957 3.54206 15.2034 3.16638 15.2034C2.66619 15.2034 2.26045 15.3633 1.94917 15.6832C1.64004 16.0031 1.48547 16.4303 1.48547 16.9648C1.48547 17.4736 1.63038 17.8793 1.92019 18.182C2.21 18.4826 2.59105 18.6328 3.06334 18.6328C3.49913 18.6328 3.87696 18.5298 4.19683 18.3237V19.0321ZM8.80677 19.3026C8.14128 19.3026 7.60781 19.0869 7.20636 18.6554C6.80707 18.2239 6.60742 17.6625 6.60742 16.9712C6.60742 16.2285 6.81136 15.636 7.21925 15.1937C7.62713 14.7515 8.18099 14.5304 8.88084 14.5304C9.52916 14.5304 10.0508 14.7451 10.4458 15.1744C10.843 15.6038 11.0415 16.1651 11.0415 16.8585C11.0415 17.6121 10.8387 18.2078 10.4329 18.6457C10.0272 19.0837 9.48515 19.3026 8.80677 19.3026ZM8.84219 15.2034C8.41928 15.2034 8.07473 15.3612 7.80853 15.6768C7.54448 15.9923 7.41245 16.4077 7.41245 16.9229C7.41245 17.436 7.54126 17.8493 7.79887 18.1627C8.05648 18.4761 8.39352 18.6328 8.80999 18.6328C9.25223 18.6328 9.60107 18.4836 9.85654 18.1852C10.112 17.8868 10.2397 17.4693 10.2397 16.9326C10.2397 16.3809 10.1152 15.9548 9.8662 15.6542C9.61932 15.3537 9.27799 15.2034 8.84219 15.2034ZM18.7621 19.2253H18.0022V16.2371C18.0022 15.9923 18.0172 15.6929 18.0473 15.3386H18.0344C17.9872 15.5404 17.9453 15.6853 17.9088 15.7734L16.5306 19.2253H16.0025L14.6211 15.7991C14.5824 15.6982 14.5416 15.5447 14.4987 15.3386H14.4858C14.503 15.5233 14.5116 15.8249 14.5116 16.2435V19.2253H13.8031V14.6077H14.8819L16.0959 17.6829C16.1882 17.919 16.2483 18.0951 16.2762 18.211H16.2923C16.3717 17.9684 16.4361 17.7881 16.4855 17.67L17.722 14.6077H18.7621V19.2253ZM22.5799 17.5509V19.2253H21.8168V14.6077H23.2175C23.7478 14.6077 24.1589 14.7311 24.4508 14.978C24.7428 15.2249 24.8888 15.5726 24.8888 16.0213C24.8888 16.47 24.7364 16.8371 24.4315 17.1226C24.1267 17.4081 23.7145 17.5509 23.195 17.5509H22.5799ZM22.5799 15.2388V16.9262H23.0758C23.4043 16.9262 23.6544 16.85 23.8261 16.6975C23.9979 16.5451 24.0837 16.3304 24.0837 16.0535C24.0837 15.5104 23.7682 15.2388 23.137 15.2388H22.5799ZM30.146 19.2253H27.5892V14.6077H28.3556V18.5781H30.146V19.2253ZM33.5162 19.2253H32.7272V14.6077H33.5162V19.2253ZM40.3641 19.2253H39.5237L39.1083 18.05H37.2921L36.8928 19.2253H36.0556L37.7848 14.6077H38.6478L40.3641 19.2253ZM38.9054 17.4253L38.2646 15.5834C38.2453 15.5233 38.2249 15.4267 38.2034 15.2936H38.1905C38.1712 15.4159 38.1497 15.5125 38.1261 15.5834L37.4917 17.4253H38.9054ZM46.8321 19.2253H45.9948L43.789 15.8313C43.7332 15.7454 43.6871 15.6564 43.6506 15.564H43.6313C43.6484 15.6628 43.657 15.8743 43.657 16.1984V19.2253H42.9164V14.6077H43.8084L45.9401 17.9212C46.0303 18.0586 46.0882 18.153 46.114 18.2046H46.1269C46.1054 18.0822 46.0947 17.875 46.0947 17.5831V14.6077H46.8321V19.2253ZM52.8557 15.2581H51.529V19.2253H50.7626V15.2581H49.4391V14.6077H52.8557V15.2581Z" fill="#020202"/>
<defs>
<linearGradient id="paint0_linear_4327_351" x1="11.4014" y1="3.32238" x2="52.036" y2="5.45205" gradientUnits="userSpaceOnUse">
<stop stop-color="#2F5CAF"/>
<stop offset="1" stop-color="#2074DF" stop-opacity="0.88"/>
</linearGradient>
<linearGradient id="paint1_linear_4327_351" x1="0.64878" y1="3.62266" x2="7.89179" y2="3.69689" gradientUnits="userSpaceOnUse">
<stop stop-color="#2F5CAF"/>
<stop offset="1" stop-color="#2074DF" stop-opacity="0.88"/>
</linearGradient>
</defs>
</svg>
