<svg width="23" height="17" viewBox="0 0 23 17" fill="none" xmlns="http://www.w3.org/2000/svg">
<path d="M15.6914 0.277756C15.9566 0.277756 16.211 0.383113 16.3985 0.570649C16.5861 0.758186 16.6914 1.01254 16.6914 1.27776V5.47776L21.9044 1.82776C21.9794 1.77521 22.0673 1.74425 22.1587 1.73826C22.25 1.73226 22.3412 1.75146 22.4224 1.79375C22.5036 1.83604 22.5716 1.89981 22.6191 1.97811C22.6665 2.0564 22.6915 2.14622 22.6914 2.23776V14.3178C22.6915 14.4093 22.6665 14.4991 22.6191 14.5774C22.5716 14.6557 22.5036 14.7195 22.4224 14.7618C22.3412 14.8041 22.25 14.8233 22.1587 14.8173C22.0673 14.8113 21.9794 14.7803 21.9044 14.7278L16.6914 11.0778V15.2778C16.6914 15.543 16.5861 15.7973 16.3985 15.9849C16.211 16.1724 15.9566 16.2778 15.6914 16.2778H1.69141C1.42619 16.2778 1.17184 16.1724 0.984299 15.9849C0.796763 15.7973 0.691406 15.543 0.691406 15.2778V1.27776C0.691406 1.01254 0.796763 0.758186 0.984299 0.570649C1.17184 0.383113 1.42619 0.277756 1.69141 0.277756H15.6914ZM7.09141 5.10676C6.99919 5.10674 6.90981 5.13858 6.83837 5.19689C6.76694 5.2552 6.71785 5.33641 6.69941 5.42676L6.69141 5.50576V11.0478C6.6914 11.1125 6.70712 11.1763 6.73723 11.2337C6.76733 11.2911 6.81091 11.3402 6.86423 11.377C6.91754 11.4138 6.979 11.4371 7.0433 11.4449C7.10761 11.4527 7.17285 11.4448 7.23341 11.4218L7.30641 11.3858L11.6614 8.61476C11.7122 8.58214 11.755 8.53846 11.7866 8.48699C11.8182 8.43551 11.8378 8.37756 11.8438 8.31747C11.8499 8.25738 11.8423 8.19669 11.8216 8.13995C11.8009 8.0832 11.7677 8.03186 11.7244 7.98976L11.6614 7.93976L7.30641 5.16776C7.24188 5.12776 7.16731 5.10595 7.09141 5.10676Z" fill="white"/>
</svg>
