<svg width="58" height="87" viewBox="0 0 58 87" fill="none" xmlns="http://www.w3.org/2000/svg">
<path d="M26.3559 66.9767C26.9093 67.8318 27.8818 68.4019 28.9884 68.4019C30.0951 68.4019 31.0676 67.8318 31.6377 66.9767L50.1154 38.4385C52.5969 34.5988 54.0389 30.3734 54.0389 25.4773C54.0222 11.3257 42.9054 0.443604 28.9884 0.443604C15.0715 0.443604 3.95468 11.3257 3.95468 25.4773C3.95468 30.3734 5.39668 34.5988 7.87825 38.4385L26.3559 66.9767ZM28.9884 11.1747C36.8859 11.1747 43.291 17.5799 43.291 25.4773C43.291 33.3748 36.8859 39.7799 28.9884 39.7799C21.091 39.7799 14.6858 33.3748 14.6858 25.4773C14.6858 17.5799 21.091 11.1747 28.9884 11.1747ZM47.332 54.6862L28.9884 79.133L10.6449 54.6862C4.37387 57.9726 0.366455 62.8854 0.366455 68.4019C0.366455 78.2779 13.1768 86.2927 28.9884 86.2927C44.8001 86.2927 57.6104 78.2779 57.6104 68.4019C57.6104 62.8854 53.603 57.9726 47.332 54.6862Z" fill="#800505"/>
</svg>
