<svg width="19" height="17" viewBox="0 0 19 17" fill="none" xmlns="http://www.w3.org/2000/svg">
<path d="M12.9855 14.6342C13.5378 14.6342 13.9855 15.0819 13.9855 15.6342V15.6342C13.9855 16.1864 13.5378 16.6342 12.9855 16.6342H3.98553C3.43325 16.6342 2.98553 16.1864 2.98553 15.6342V15.6342C2.98553 15.0819 3.43325 14.6342 3.98553 14.6342H12.9855ZM17.9855 7.63416C18.5378 7.63416 18.9855 8.08187 18.9855 8.63416V8.63416C18.9855 9.18644 18.5378 9.63416 17.9855 9.63416H1.98554C1.43325 9.63416 0.985535 9.18644 0.985535 8.63416V8.63416C0.985535 8.08187 1.43325 7.63416 1.98553 7.63416H17.9855ZM15.9855 0.634155C16.5378 0.634155 16.9855 1.08187 16.9855 1.63416V1.63416C16.9855 2.18644 16.5378 2.63416 15.9855 2.63416H6.98553C6.43325 2.63416 5.98553 2.18644 5.98553 1.63416V1.63416C5.98553 1.08187 6.43325 0.634155 6.98553 0.634155H15.9855Z" fill="url(#paint0_linear_6298_551)"/>
<defs>
<linearGradient id="paint0_linear_6298_551" x1="1.89625" y1="4.47416" x2="18.1913" y2="4.70902" gradientUnits="userSpaceOnUse">
<stop stop-color="white"/>
<stop offset="1" stop-color="white" stop-opacity="0.88"/>
</linearGradient>
</defs>
</svg>
