<svg width="54" height="54" viewBox="0 0 54 54" fill="none" xmlns="http://www.w3.org/2000/svg">
<path d="M13.4178 30.1245H15.5866V40.8496H17.6663V30.1245H19.8351V28.3122H13.4178V30.1245ZM24.3806 38.6214C24.0241 39.0373 22.806 39.8692 22.806 38.6808V31.5802H20.9641V39.3344C20.9641 41.6814 23.3111 41.0575 24.4103 39.8394V40.8496H26.2523V31.5802H24.4103V38.6214H24.3806ZM31.2435 31.5208C30.174 31.5208 29.4907 32.323 29.4907 32.323V28.2825H27.619V40.8496H29.4907V40.1365C29.4907 40.1365 30.1146 40.9684 31.2435 40.9684C32.2239 40.9684 32.9667 40.1068 32.9667 38.9185V33.7787C32.9667 32.3824 32.3131 31.5208 31.2435 31.5208ZM31.0356 38.6808C31.0356 39.3641 30.5602 39.6909 29.9363 39.4235C29.7678 39.3448 29.6164 39.2337 29.4907 39.0967V33.3331C29.6095 33.2142 29.7581 33.1251 29.8769 33.036C30.5305 32.7092 31.0356 33.2142 31.0356 33.8976V38.6808ZM37.8984 38.2054C37.8984 38.9185 37.5122 39.3938 37.0666 39.4235C36.5912 39.4532 36.1159 39.067 36.1159 38.2054V36.4526H39.6513V34.0758C39.6604 33.7139 39.5967 33.3539 39.464 33.017C39.3313 32.6802 39.1323 32.3735 38.8789 32.115C38.3678 31.6488 37.6989 31.394 37.0072 31.402C36.3536 31.402 35.6702 31.6099 35.1355 32.0259C34.571 32.4715 34.2145 33.1548 34.2145 34.0758V38.2351C34.2145 39.067 34.4819 39.7206 34.8978 40.196C35.4028 40.7307 36.0862 41.0278 36.7992 41.0575C37.6608 41.0872 38.5818 40.7307 39.1165 39.988C39.4433 39.5424 39.6513 38.9482 39.6513 38.2351V37.7598H37.8984V38.2054ZM36.1159 34.0758C36.1159 33.5708 36.413 32.9766 36.9774 32.9766C37.5419 32.9766 37.8984 33.5113 37.8984 34.0758V35.0265H36.1159V34.0758Z" fill="url(#paint0_linear_6288_385)"/>
<path d="M26.7573 -0.000976521C23.2458 -0.000781498 19.7686 0.691062 16.5245 2.03505C13.2803 3.37904 10.3326 5.34886 7.84971 7.83204C5.36681 10.3152 3.39732 13.2631 2.05369 16.5074C0.710061 19.7518 0.0186038 23.229 0.0187989 26.7405C0.0189939 30.2521 0.710838 33.7292 2.05483 36.9734C3.39882 40.2175 5.36864 43.1652 7.85181 45.6481C10.335 48.131 13.2829 50.1005 16.5272 51.4441C19.7715 52.7878 23.2487 53.4792 26.7603 53.479C33.8522 53.4786 40.6534 50.661 45.6679 45.646C50.6823 40.631 53.4992 33.8294 53.4988 26.7375C53.4984 19.6456 50.6808 12.8444 45.6658 7.82994C40.6508 2.81549 33.8492 -0.00137039 26.7573 -0.000976521ZM31.4514 10.0111H33.8282V17.9732C33.8282 18.4783 34.0658 18.4783 34.155 18.4783C34.5115 18.4783 35.0463 18.0921 35.3136 17.8247V9.9814H37.6904V20.4986H35.3136V19.5776C34.9868 19.8747 34.66 20.1123 34.3332 20.2906C33.8876 20.5283 33.4717 20.6174 33.0557 20.6174C32.828 20.6283 32.6007 20.5887 32.3901 20.5013C32.1795 20.414 31.9908 20.2812 31.8376 20.1123C31.5702 19.7855 31.4514 19.2805 31.4514 18.6566V10.0111ZM23.8755 12.7741C23.8755 11.1401 25.2124 9.80315 26.8464 9.80315C28.4805 9.80315 29.8174 11.1401 29.8174 12.7741V17.8247C29.8174 19.4587 28.4805 20.7956 26.8464 20.7956C25.2124 20.7956 23.8755 19.4587 23.8755 17.8247V12.7741ZM17.6959 6.38656L19.122 11.6154L20.5777 6.38656H23.2813L20.4886 14.6458V20.4986H17.8445V14.6458L14.9924 6.38656H17.6959ZM41.1664 43.6422C39.6512 45.1277 26.8167 45.1574 26.8167 45.1574C26.8167 45.1574 14.012 45.1277 12.4671 43.6422C10.9519 42.1567 10.9519 34.7591 10.9519 34.6997C10.9519 34.67 10.9519 27.2723 12.4671 25.7571C13.9822 24.2717 26.8167 24.2419 26.8167 24.2419C26.8167 24.2419 39.6215 24.2717 41.1664 25.7571C42.6816 27.2426 42.7113 34.6403 42.7113 34.6997C42.7113 34.6997 42.7113 42.127 41.1664 43.6422Z" fill="url(#paint1_linear_6288_385)"/>
<path d="M26.787 18.8644C27.2921 18.8644 27.5297 18.5673 27.5594 18.092V12.4472C27.5594 12.0609 27.1732 11.7341 26.8167 11.7341C26.4602 11.7341 26.074 12.0312 26.074 12.4472V18.092C26.074 18.5376 26.2819 18.8347 26.787 18.8644Z" fill="url(#paint2_linear_6288_385)"/>
<defs>
<linearGradient id="paint0_linear_6288_385" x1="18.7425" y1="29.3803" x2="25.4438" y2="43.8578" gradientUnits="userSpaceOnUse">
<stop stop-color="#E60000"/>
<stop offset="1" stop-color="#910000"/>
</linearGradient>
<linearGradient id="paint1_linear_6288_385" x1="10.8734" y1="4.59428" x2="47.6169" y2="43.2548" gradientUnits="userSpaceOnUse">
<stop stop-color="#E60000"/>
<stop offset="1" stop-color="#910000"/>
</linearGradient>
<linearGradient id="paint2_linear_6288_385" x1="26.3755" y1="12.3468" x2="28.4273" y2="12.7966" gradientUnits="userSpaceOnUse">
<stop stop-color="#E60000"/>
<stop offset="1" stop-color="#910000"/>
</linearGradient>
</defs>
</svg>
